PathFileType	4	(X/Y/Z)	D:\TRACE\v60_Jaco2_6-2-23\BothDRS_Motion2_1-platform.trc
DataRate	CameraRate	NumFrames	NumMarkers	Units	OrigDataRate	OrigDataStartFrame	OrigNumFrames
100.00	100.00	      41	5	mm	100.00	6563	      7500
Frame#	Time	Left_Front			Right_Front			Left_Aft			Right_Aft			Post			
		X1	Y1	Z1	X2	Y2	Z2	X3	Y3	Z3	X4	Y4	Z4	X5	Y5	Z5	

6563	65.620	-849.79840	-43.60059	-649.05493	720.22864	-42.02410	-654.27917	-758.39063	43.70290	483.37680	684.37256	43.65807	492.09464	-63.59473	1226.45764	-1081.38269	
6564	65.630	-849.32990	-44.41261	-649.03760	720.58667	-42.91624	-654.44855	-757.64319	43.95572	482.94873	684.71680	44.13880	491.86642	-62.96420	1225.09595	-1083.46179	
6565	65.640	-848.95624	-45.16317	-649.01300	720.97089	-43.46071	-654.66089	-757.26398	44.30457	482.58167	684.78693	44.73942	491.65594	-62.75049	1223.54761	-1085.74231	
6566	65.650	-848.64545	-46.26221	-649.16748	721.25153	-44.25856	-654.72888	-756.81635	44.86100	482.30450	685.42200	45.37351	491.36395	-62.59164	1222.49304	-1087.72888	
6567	65.660	-848.29248	-46.93223	-649.52209	721.54608	-45.06530	-654.86859	-756.58295	45.37204	481.94229	685.73053	45.72509	491.19302	-62.45512	1221.30225	-1089.51050	
6568	65.670	-847.96405	-47.39791	-649.66412	721.79163	-45.87280	-655.07996	-756.34937	45.73437	481.88983	686.34314	46.20209	490.98401	-62.09175	1219.99304	-1091.22900	
6569	65.680	-847.55933	-48.04954	-649.84564	722.51385	-46.54541	-655.14941	-755.80725	46.34541	481.82455	686.96967	46.70451	490.68237	-61.01015	1218.73877	-1092.96777	
6570	65.690	-846.91321	-48.75833	-649.85901	723.06561	-46.90460	-655.20660	-755.29987	46.77838	481.69305	687.31464	47.02996	490.54337	-60.63715	1217.94531	-1094.57214	
6571	65.700	-846.48419	-49.11091	-649.81189	723.43286	-47.47311	-655.46405	-754.96216	47.07749	481.46039	687.64087	47.44267	490.39536	-60.32337	1217.23682	-1096.49255	
6572	65.710	-845.81244	-49.67334	-649.83215	723.77490	-47.89072	-655.61420	-754.50452	47.78984	481.39529	687.95917	47.72134	490.30841	-60.00031	1216.18591	-1098.04590	
6573	65.720	-845.50165	-50.18496	-649.84167	724.18585	-48.34179	-655.47870	-754.25842	48.13355	481.29593	688.58588	48.15331	490.14749	-59.37859	1215.46533	-1099.24426	
6574	65.730	-844.97540	-50.72685	-650.23236	725.23645	-48.72851	-655.18939	-753.13214	47.27200	480.86533	689.16278	48.42201	490.11374	-58.63045	1214.65930	-1100.60547	
6575	65.740	-844.46051	-51.07578	-650.30371	725.64392	-48.81635	-655.09015	-752.68353	47.77042	480.79095	690.11713	48.84642	490.55173	-58.13842	1213.93848	-1102.07568	
6576	65.750	-844.06158	-51.09732	-650.40240	726.37311	-48.92118	-655.09338	-751.89459	48.02655	480.76877	690.41510	49.08374	490.24338	-57.92401	1213.38940	-1102.98218	
6577	65.760	-843.56250	-51.31779	-650.29584	727.10718	-49.41130	-655.21539	-750.69824	47.46581	480.55011	690.90997	49.22979	490.15457	-56.86826	1212.88940	-1104.30164	
6578	65.770	-842.58990	-51.83098	-650.36401	727.73334	-49.76583	-655.35547	-750.52686	47.94958	480.45453	691.67999	49.46380	490.03589	-56.44065	1212.40942	-1105.27563	
6579	65.780	-842.15521	-52.31619	-650.40875	728.10840	-50.05377	-655.36908	-750.00946	48.28330	480.29092	692.20636	49.67859	489.95587	-55.94270	1211.87366	-1106.35608	
6580	65.790	-841.41119	-52.50970	-650.53711	728.35028	-50.53945	-655.64532	-749.65955	48.65697	480.22418	692.60748	49.79314	489.87219	-55.68892	1211.52991	-1106.80164	
6581	65.800	-840.96564	-52.44494	-650.66840	729.17200	-50.73677	-655.45502	-748.94641	48.95097	480.26392	693.41241	50.04730	489.86469	-55.06762	1211.14587	-1107.72925	
6582	65.810	-840.45215	-52.31582	-650.69159	730.13208	-50.67543	-655.54175	-748.45917	49.14870	480.33707	694.13916	50.10215	489.75223	-54.14191	1210.85022	-1108.31860	
6583	65.820	-839.54248	-52.48304	-650.69995	730.59631	-50.80505	-655.73688	-747.78204	49.34188	480.29562	694.73572	50.28772	489.76590	-53.50188	1210.30786	-1108.91785	
6584	65.830	-838.58740	-52.92897	-650.67645	731.35541	-51.43425	-655.89648	-747.46014	49.73243	480.24200	695.55133	50.34108	489.64603	-52.85015	1209.89929	-1109.14246	
6585	65.840	-838.05719	-53.57600	-650.66919	732.14996	-51.68799	-655.72046	-746.88483	49.94564	480.30826	696.09027	50.36518	489.52576	-52.34764	1209.46594	-1109.37146	
6586	65.850	-837.47992	-53.60019	-650.66541	732.69995	-51.66717	-655.76642	-745.07910	48.76300	479.64719	696.91504	50.60211	489.48923	-51.24857	1209.26819	-1109.60803	
6587	65.860	-836.71173	-53.40059	-650.78156	733.40491	-51.81676	-655.82214	-744.51959	49.24998	479.89630	697.65833	50.67738	489.55313	-50.47640	1208.99463	-1109.87122	
6588	65.870	-835.97864	-53.47518	-650.70325	734.43701	-51.75721	-655.72339	-744.01050	49.46680	479.89380	698.42413	50.68553	489.46509	-49.50895	1209.02551	-1109.92786	
6589	65.880	-835.08319	-53.74419	-650.56738	735.25836	-51.73250	-655.78571	-743.25629	49.53255	479.87152	699.21259	50.69345	489.39764	-49.10907	1209.10547	-1109.68469	
6590	65.890	-834.23914	-53.57680	-650.58594	735.97412	-51.70031	-655.97565	-742.60883	49.57510	479.89450	699.91321	50.65811	489.47958	-48.17990	1209.15271	-1109.58923	
6591	65.900	-833.55927	-53.36708	-650.68640	736.76917	-51.78267	-655.76251	-741.77942	49.35651	479.99817	700.61890	50.59235	489.48911	-47.34712	1209.53198	-1109.33362	
6592	65.910	-832.73846	-53.16742	-650.86450	737.34949	-51.65310	-655.93561	-740.83722	49.29335	479.99255	701.79730	50.50200	489.48291	-46.59030	1209.98450	-1109.17798	
6593	65.920	-831.82312	-52.51274	-650.84259	738.52362	-50.97810	-655.52399	-740.32245	49.21111	480.15790	702.46161	50.11926	489.56772	-45.87962	1210.52112	-1108.68115	
6594	65.930	-830.94611	-52.20032	-650.54651	739.27417	-50.53109	-655.70233	-739.47913	49.04179	480.13766	702.92084	49.75843	489.64862	-44.67709	1210.92847	-1108.32629	
6595	65.940	-830.24335	-51.82034	-650.45874	739.96912	-50.25695	-655.64899	-738.59955	49.00165	480.24442	703.63721	49.20806	489.60599	-43.92940	1211.55933	-1107.81995	
6596	65.950	-829.41473	-51.44244	-650.54932	740.84705	-49.67840	-655.48053	-737.67365	48.47652	480.27142	703.94946	48.68126	489.43149	-43.19551	1212.41382	-1107.16968	
6597	65.960	-828.39764	-50.99866	-650.54724	741.79065	-48.95958	-655.44250	-737.23718	48.54287	480.39893	704.01508	47.81817	488.91754	-42.40991	1213.48767	-1106.28113	
6598	65.970	-827.50824	-50.38554	-650.42719	742.74268	-48.59900	-655.44659	-735.77203	47.70531	480.42493	707.93677	49.35762	490.99875	-41.43038	1214.13000	-1105.57349	
6599	65.980	-826.66937	-49.90141	-650.12897	743.59583	-48.23638	-655.26300	-734.54584	46.71855	480.95740	708.09766	48.65953	490.75287	-40.05781	1215.03210	-1104.59680	
6600	65.990	-825.79443	-49.32328	-650.05640	744.51984	-47.37439	-655.12079	-733.74213	46.75777	480.87378	708.79468	47.99519	490.72168	-39.17870	1215.86511	-1103.48511	
6601	66.000	-824.73602	-48.72121	-650.21429	745.60504	-47.11602	-655.00409	-732.73218	46.47311	481.03091	709.61163	47.59472	490.92355	-38.36094	1216.93005	-1102.02515	
6602	66.010	-823.80707	-48.18768	-650.11926	746.50763	-46.57051	-655.17603	-731.93762	46.04855	481.16360	710.37732	47.03619	490.84613	-37.59388	1217.82947	-1100.93872	
6603	66.020	-822.78174	-47.49855	-650.05829	747.59943	-45.84335	-654.82831	-730.96271	45.60415	481.32935	711.23120	46.67695	491.14069	-36.61188	1218.89099	-1099.60474	
